<svg id="a3a9e973-506c-4a2c-97f9-9fd9b6da0ff4" data-name="Layer 1" xmlns="http://www.w3.org/2000/svg" xmlns:xlink="http://www.w3.org/1999/xlink" width="496.39" height="496.4" viewBox="0 0 496.39 496.4">
  <defs>
    <linearGradient id="b791171f-2c0d-468d-9ab6-0b58e839ced5" x1="607.73" y1="205.75" x2="607.73" y2="702.15" gradientUnits="userSpaceOnUse">
      <stop offset="0" stop-color="#58595b"/>
      <stop offset="1" stop-color="#231f20"/>
    </linearGradient>
    <linearGradient id="ab06c57d-22bb-4fd4-b9e7-6747567dd90a" x1="605.13" y1="205.75" x2="605.13" y2="702.3" gradientUnits="userSpaceOnUse">
      <stop offset="0" stop-color="#a2238d"/>
      <stop offset="1" stop-color="#262261"/>
    </linearGradient>
    <linearGradient id="eed42a83-e5a0-48b5-9b09-1e2875689fc3" x1="683.05" y1="205.75" x2="683.05" y2="702.31" xlink:href="#ab06c57d-22bb-4fd4-b9e7-6747567dd90a"/>
    <linearGradient id="e923277b-939e-43e6-8925-35b2ae0a52c1" x1="607.73" y1="539.51" x2="607.73" y2="174.71" gradientUnits="userSpaceOnUse">
      <stop offset="0" stop-color="#6d6e70"/>
      <stop offset="1" stop-color="#231f20"/>
    </linearGradient>
    <linearGradient id="fd6daa72-28fb-4131-98ad-18e616f52486" x1="605.13" y1="539.51" x2="605.13" y2="174.71" xlink:href="#ab06c57d-22bb-4fd4-b9e7-6747567dd90a"/>
    <linearGradient id="a03032de-a91f-4604-93b8-20f07ac54598" x1="700.12" y1="539.51" x2="700.12" y2="174.7" xlink:href="#ab06c57d-22bb-4fd4-b9e7-6747567dd90a"/>
  </defs>
  <g>
    <g>
      <path d="M607.74,705.25c-136.86,0-248.2-111.34-248.2-248.2s111.34-248.2,248.2-248.2,248.19,111.34,248.19,248.2S744.59,705.25,607.74,705.25Zm0-475.12c-125.13,0-226.93,101.8-226.93,226.92S482.61,684,607.74,684s226.91-101.8,226.91-226.93S732.86,230.13,607.74,230.13Z" transform="translate(-359.54 -208.85)" style="fill: url(#b791171f-2c0d-468d-9ab6-0b58e839ced5)"/>
      <g>
        <path d="M558.91,410.57H814.46c-21.34-94.48-105.79-165-206.72-165a211.67,211.67,0,0,0-173.52,90.22H704.91l-15.44,65.37h-44l5-21.73H410.65a212.11,212.11,0,0,0,94.72,263.68Z" transform="translate(-359.54 -208.85)" style="fill: url(#ab06c57d-22bb-4fd4-b9e7-6747567dd90a)"/>
        <path d="M595,454.29,546.42,660.38a211.26,211.26,0,0,0,37.83,7.71l46.87-204.34h43.55L626.26,668.58c108.38-9.39,193.41-100.32,193.41-211.12,0-1.06,0-2.11,0-3.17Z" transform="translate(-359.54 -208.85)" style="fill: url(#eed42a83-e5a0-48b5-9b09-1e2875689fc3)"/>
      </g>
    </g>
    <g>
      <path d="M368.27,476.83c4.6,1.73,9.24,3.36,13.89,5a230,230,0,0,1-1.35-24.75c0-125.12,101.8-226.92,226.93-226.92s226.91,101.8,226.91,226.92q0,4.9-.21,9.75,10.77-3.74,21.46-7.66c0-.7,0-1.39,0-2.09,0-136.86-111.34-248.2-248.19-248.2s-248.2,111.34-248.2,248.2c0,5.31.18,10.58.51,15.8C362.78,474.2,365.51,475.53,368.27,476.83Z" transform="translate(-359.54 -208.85)" style="fill: url(#e923277b-939e-43e6-8925-35b2ae0a52c1)"/>
      <g>
        <path d="M503.57,511.5q15.73,1.65,31.5,2.6l23.84-103.53H814.46c-21.34-94.48-105.79-165-206.72-165a211.67,211.67,0,0,0-173.52,90.22H704.91l-15.44,65.37h-44l5-21.73H410.65A212.83,212.83,0,0,0,397.84,487,742,742,0,0,0,503.57,511.5Z" transform="translate(-359.54 -208.85)" style="fill: url(#fd6daa72-28fb-4131-98ad-18e616f52486)"/>
        <path d="M619.5,514.41l11.62-50.66h43.55l-11.14,47.11c52.92-8.56,104.8-22,155.59-38.86.32-4.81.55-9.65.55-14.54,0-1.06,0-2.11,0-3.17H595l-14.41,61.16Q600,515.44,619.5,514.41Z" transform="translate(-359.54 -208.85)" style="fill: url(#a03032de-a91f-4604-93b8-20f07ac54598)"/>
      </g>
    </g>
  </g>
</svg>
