<svg id="Layer_1" data-name="Layer 1" xmlns="http://www.w3.org/2000/svg" viewBox="0 0 65.5 17.61"><path d="M20,15.8a.84.84,0,0,1-.43.83,2.34,2.34,0,0,1-1,.22,1.37,1.37,0,0,1-1-.43A3.17,3.17,0,0,1,16.86,15a14.39,14.39,0,0,1-.35-2.49c-.07-1-.1-2.26-.1-3.72a.1.1,0,0,0-.07-.11s-.06.17-.14.45-.18.65-.28,1.08-.22.91-.35,1.45-.24,1.06-.33,1.56-.18,1-.25,1.44a7.21,7.21,0,0,0-.11,1A.37.37,0,0,0,15,16c0,.06.07.1.07.13a.21.21,0,0,1-.12.18.87.87,0,0,1-.27.15l-.29.09-.2,0a2.07,2.07,0,0,1-.43-.06,2.22,2.22,0,0,1-.52-.2,2.6,2.6,0,0,1-.5-.34,1.41,1.41,0,0,1-.37-.52,3.61,3.61,0,0,1-.13-.73c0-.34-.06-.71-.07-1.11s0-.83,0-1.27,0-.86,0-1.24,0-.86,0-1.21-.05-.52-.12-.52-.07.07-.13.2l-.18.45c-.06.16-.11.33-.16.49l-.1.34a23.65,23.65,0,0,0-.58,3,19.85,19.85,0,0,0-.15,2.33c0,.14,0,.23,0,.29a.39.39,0,0,0,0,.11l.05.06a.49.49,0,0,1,0,.12,1.59,1.59,0,0,1-.55.15,5.53,5.53,0,0,1-.71,0l-.26,0a2.24,2.24,0,0,1-.46-.12,1.56,1.56,0,0,1-.43-.21.34.34,0,0,1-.2-.31c0-.11,0-.33,0-.65s0-.7,0-1.13,0-.92,0-1.45,0-1,0-1.57,0-1,0-1.54,0-.92,0-1.28c0-.11,0-.28,0-.51s0-.5-.05-.8a7.9,7.9,0,0,0-.14-.92,4.22,4.22,0,0,0-.25-.85,1.92,1.92,0,0,0-.39-.64.79.79,0,0,0-.6-.25,1.66,1.66,0,0,0-1.21.53,4.46,4.46,0,0,0-.86,1.3,7.94,7.94,0,0,0-.5,1.59,7.7,7.7,0,0,0-.17,1.45,5.37,5.37,0,0,0,0,.58,4,4,0,0,0,.14.78,2.06,2.06,0,0,0,.36.69.75.75,0,0,0,.63.31l.25,0,.28,0,.19,0,.29.06a.91.91,0,0,1,.26.13.35.35,0,0,1,.11.27.41.41,0,0,1-.12.3,1.33,1.33,0,0,1-.31.18,1.44,1.44,0,0,1-.33.08l-.22,0a2,2,0,0,1-1.34-.42,2.89,2.89,0,0,1-.77-1,4.39,4.39,0,0,1-.36-1.22,6.87,6.87,0,0,1-.1-1.1A8.12,8.12,0,0,1,3.3,7.41,6.68,6.68,0,0,1,4,5.52,4.82,4.82,0,0,1,5.36,4a3.22,3.22,0,0,1,2-.61A1.35,1.35,0,0,1,8,3.57,2.17,2.17,0,0,1,8.57,4,3.27,3.27,0,0,1,9,4.65a2.72,2.72,0,0,1,.26.63,7.27,7.27,0,0,1,.35,1.59c.08.64.13,1.3.17,2s.05,1.38.06,2.08,0,1.33,0,1.92c.07-.35.14-.68.22-1l.24-.94.26-1,.3-1.23c.11-.5.24-1,.39-1.61s.3-1.08.45-1.54c0-.13.13-.21.31-.23l.36,0a1.13,1.13,0,0,1,.43.12,3.53,3.53,0,0,1,.5.28,1.69,1.69,0,0,1,.41.39.67.67,0,0,1,.18.43V10c0,.26,0,.59,0,1s0,.76,0,1.12,0,.65,0,.91,0,.37.08.37.18-.25.3-.74.25-1.11.41-1.85.32-1.53.5-2.39.38-1.65.58-2.39a12.34,12.34,0,0,1,.67-1.85c.24-.49.48-.74.73-.74a.74.74,0,0,1,.5.27,3.92,3.92,0,0,1,.51.62,4.64,4.64,0,0,1,.37.69,1.39,1.39,0,0,1,.15.47,2.53,2.53,0,0,1-.11.42,9.21,9.21,0,0,0-.22,1.14c-.07.53-.15,1.24-.21,2.14s-.11,2-.11,3.42a7.89,7.89,0,0,0,.07,1,9.65,9.65,0,0,0,.22,1.12,3.46,3.46,0,0,0,.39.91.68.68,0,0,0,.57.37.6.6,0,0,0,.3-.07.89.89,0,0,0,.25-.3A.21.21,0,0,1,20,15.8Z" transform="translate(-3.08 -3.4)" style="fill:#231f20"/><path d="M22.82,6.82a.27.27,0,0,1-.15.24,1,1,0,0,1-.32.14,2.14,2.14,0,0,1-.35.06l-.2,0A1.65,1.65,0,0,1,20.93,7a2.36,2.36,0,0,1-.78-.79A1.29,1.29,0,0,0,20,6.07a.27.27,0,0,1-.08-.15q0-.11.15-.18a3,3,0,0,1,.36-.17,2.36,2.36,0,0,1,.37-.13l.24,0a1.79,1.79,0,0,1,.83.21,1.55,1.55,0,0,1,.66.77l.15.22A.53.53,0,0,1,22.82,6.82ZM25,13.15a6.12,6.12,0,0,1-.23,1,4.11,4.11,0,0,1-.47,1,2.66,2.66,0,0,1-.76.77,2,2,0,0,1-1.13.3,2,2,0,0,1-1.07-.35,1.94,1.94,0,0,1-.74-1,3.89,3.89,0,0,1-.2-1.17c0-.12,0-.28,0-.5s0-.5,0-.82v-2.3c0-.11,0-.23,0-.35a1.93,1.93,0,0,0-.06-.36,1.14,1.14,0,0,0-.07-.19.39.39,0,0,1-.05-.14c0-.06,0-.1.1-.14a.88.88,0,0,1,.23-.07l.36,0h.29a2.93,2.93,0,0,1,.48.07,1.32,1.32,0,0,1,.45.2.45.45,0,0,1,.2.39.36.36,0,0,1-.08.23,2,2,0,0,0-.17.58c0,.11,0,.21-.05.3s0,.2,0,.31,0,.24,0,.4,0,.37,0,.62v1.25c0,.23,0,.45,0,.68a3.82,3.82,0,0,0,.09.63,1.06,1.06,0,0,0,.24.46.59.59,0,0,0,.44.18.85.85,0,0,0,.63-.23l.36-.4a2.34,2.34,0,0,0,.35-.78c.08-.32.16-.64.23-1l0-.21a.36.36,0,0,1,.38-.32c.21,0,.31.15.31.44v.11Z" transform="translate(-3.08 -3.4)" style="fill:#231f20"/><path d="M32.55,14.22a3,3,0,0,1-.21.68,3.67,3.67,0,0,1-.43.77,2.49,2.49,0,0,1-.6.61,1.24,1.24,0,0,1-.76.25,1.49,1.49,0,0,1-1.1-.48,2.27,2.27,0,0,1-.57-1.35c-.09.22-.19.48-.3.77a4.39,4.39,0,0,1-.41.81,2.76,2.76,0,0,1-.58.64,1.21,1.21,0,0,1-.76.26l-.19,0-.13-.05-.17-.05a.88.88,0,0,0-.26,0,1.17,1.17,0,0,1-.85-.32,2.41,2.41,0,0,1-.55-.82,5.22,5.22,0,0,1-.31-1.1,7.54,7.54,0,0,1-.09-1.12,20,20,0,0,1,.14-2.38,8.86,8.86,0,0,1,.45-2,3.68,3.68,0,0,1,.81-1.38,1.63,1.63,0,0,1,1.21-.51,2.13,2.13,0,0,1,.64.07,3,3,0,0,1,.41.17l.4.19A2.25,2.25,0,0,0,29,8a1.56,1.56,0,0,1,.62.6,2.56,2.56,0,0,1,.23.74,5.52,5.52,0,0,1,0,.82,4,4,0,0,0,0,.85l.09.06.22.1a.64.64,0,0,1,.22.14.34.34,0,0,1,.09.24v.09a4.27,4.27,0,0,0-.25,1c0,.28,0,.61,0,1,0,.19,0,.41,0,.64a4.06,4.06,0,0,0,.11.64,1.28,1.28,0,0,0,.22.5.42.42,0,0,0,.37.2.55.55,0,0,0,.45-.25,2.46,2.46,0,0,0,.34-.57c.09-.22.16-.44.23-.66a3.37,3.37,0,0,0,.11-.5c0-.17.1-.25.21-.25a.27.27,0,0,1,.2.11.71.71,0,0,1,.09.41V14A.62.62,0,0,1,32.55,14.22Zm-3.86-3.39c0-.15,0-.33,0-.54a2.68,2.68,0,0,0-.15-.59,1.21,1.21,0,0,0-.31-.46.85.85,0,0,0-.57-.18,1.1,1.1,0,0,0-.95.53,4.36,4.36,0,0,0-.57,1.25,7.42,7.42,0,0,0-.27,1.48c0,.51-.07.91-.07,1.21s0,.49,0,.8a8,8,0,0,0,.12.89,3,3,0,0,0,.24.71.46.46,0,0,0,.41.29,1.08,1.08,0,0,0,.93-.47A3.5,3.5,0,0,0,28,14.58a11.2,11.2,0,0,0,.24-1.5c.05-.54.09-1,.13-1.48a.63.63,0,0,1,.19-.45c.1-.06.15-.1.15-.13Z" transform="translate(-3.08 -3.4)" style="fill:#231f20"/><path d="M38.09,13.55c0,.09,0,.33-.1.7a5.78,5.78,0,0,1-.33,1.17A3.84,3.84,0,0,1,37,16.51,1.3,1.3,0,0,1,36,17a1.31,1.31,0,0,1-1.07-.47,3.13,3.13,0,0,1-.6-1.13A6.65,6.65,0,0,1,34,14Q34,13.3,34,12.82a10.14,10.14,0,0,1,.06-1.1c0-.37.07-.74.09-1.1a.2.2,0,0,0-.17-.21,1.88,1.88,0,0,0-.31,0,.55.55,0,0,0-.32.06.37.37,0,0,0-.08.15l-.08.67c-.06.44-.12.87-.18,1.28a10.62,10.62,0,0,1-.21,1.09,3.54,3.54,0,0,1-.27.75c-.11.19-.23.28-.37.28h0a.26.26,0,0,1-.15,0,.23.23,0,0,1-.08-.21,2,2,0,0,1,0-.25,7.16,7.16,0,0,0,.21-1.21c0-.32,0-.6.07-.86v-.14a2.36,2.36,0,0,1,0-.25c0-.1,0-.22,0-.36v-1a5.29,5.29,0,0,0,0-.54l-.07-1.24a.33.33,0,0,1,.11-.23.91.91,0,0,1,.27-.18A1.5,1.5,0,0,1,33.18,8c.23,0,.35.15.35.46v.1l0,.46V9.1c0,.1,0,.15.06.18l.26.07h.06l.54,0a6.36,6.36,0,0,1,.75.08,2.85,2.85,0,0,1,.66.2.42.42,0,0,1,.28.39,1,1,0,0,1,0,.24c0,.1-.06.21-.1.31l-.11.28a.61.61,0,0,0,0,.17,11.88,11.88,0,0,0-.38,3c0,.08,0,.24,0,.46a5.85,5.85,0,0,0,.08.69,2.25,2.25,0,0,0,.19.62c.08.19.19.28.31.28a.68.68,0,0,0,.56-.39,4.19,4.19,0,0,0,.44-.9,7.61,7.61,0,0,0,.31-1q.1-.53.15-.78a.43.43,0,0,1,.14-.28.41.41,0,0,1,.18-.05c.19,0,.29.13.29.38,0,0,0,.1,0,.22S38.1,13.49,38.09,13.55Z" transform="translate(-3.08 -3.4)" style="fill:#231f20"/><path d="M44.56,11.35c-.19.38-.38.78-.54,1.19s-.29.75-.38,1c0,.07,0,.21-.11.43s-.14.47-.21.75-.14.54-.2.8a2.92,2.92,0,0,0-.08.65c0,.07-.07.13-.19.19a1.34,1.34,0,0,1-.48.08,1.65,1.65,0,0,1-.73-.13.84.84,0,0,1-.41-.4,2.08,2.08,0,0,1-.17-.75c0-.3,0-.67,0-1.1V12.48c0-.11,0-.22,0-.33s0-.18-.07-.21-.16.21-.26.54a9.9,9.9,0,0,0-.3,1.22c-.09.48-.17,1-.24,1.52a10.85,10.85,0,0,0-.1,1.42.26.26,0,0,1-.24.27,2.93,2.93,0,0,1-.53,0l-.29,0-.39-.07a2,2,0,0,1-.37-.12.39.39,0,0,1-.21-.18,3.39,3.39,0,0,1-.15-.89q-.06-.63-.06-1.95c0-.51,0-1.11,0-1.79s0-1.49.07-2.4c0-.13,0-.29,0-.5a3.33,3.33,0,0,1,0-.34c0-.11,0-.18.13-.2l.2,0,.35,0,.39.07a3.29,3.29,0,0,1,.37.1,1.2,1.2,0,0,1,.23.09v5l.24-1c.09-.36.19-.73.31-1.09a9.49,9.49,0,0,1,.39-1,1.94,1.94,0,0,1,.44-.67.69.69,0,0,1,.31-.1l.38,0,.26,0a1.76,1.76,0,0,1,.3.1,1.1,1.1,0,0,1,.26.15.41.41,0,0,1,.14.22V14c0,.08,0,.12,0,.12a2.17,2.17,0,0,0,.24-.56c.13-.38.28-.83.46-1.34s.38-1,.59-1.59a10.84,10.84,0,0,1,.56-1.29c0-.06.12-.09.28-.1h.42a1.1,1.1,0,0,1,.4.1,2,2,0,0,1,.48.26,2.53,2.53,0,0,1,.42.37.68.68,0,0,1,.18.44.69.69,0,0,1-.13.24,1.16,1.16,0,0,0-.16.41,6.76,6.76,0,0,0-.2,1.15c0,.37,0,.86,0,1.44q0,.38,0,.75a4.26,4.26,0,0,0,.1.68,1.61,1.61,0,0,0,.2.49.38.38,0,0,0,.33.19.81.81,0,0,0,.53-.2,1.7,1.7,0,0,0,.39-.53,5.31,5.31,0,0,0,.3-.78q.12-.45.21-.93c.06-.34.19-.51.37-.51s.19,0,.22.09a.75.75,0,0,1,.05.37,1,1,0,0,1,0,.23,4.32,4.32,0,0,1-.18.85,6.72,6.72,0,0,1-.43,1.15,4.06,4.06,0,0,1-.7,1,1.3,1.3,0,0,1-1,.43,1.74,1.74,0,0,1-1-.3,2,2,0,0,1-.64-.82,4.32,4.32,0,0,1-.32-1.18,10.4,10.4,0,0,1-.09-1.4v-.14Z" transform="translate(-3.08 -3.4)" style="fill:#231f20"/><path d="M56.59,14.22a3,3,0,0,1-.21.68,3.67,3.67,0,0,1-.43.77,2.49,2.49,0,0,1-.6.61,1.26,1.26,0,0,1-.76.25,1.49,1.49,0,0,1-1.1-.48,2.21,2.21,0,0,1-.57-1.35c-.09.22-.19.48-.3.77a4.39,4.39,0,0,1-.41.81,2.76,2.76,0,0,1-.58.64,1.19,1.19,0,0,1-.76.26l-.19,0-.14-.05-.16-.05a.88.88,0,0,0-.26,0,1.17,1.17,0,0,1-.85-.32,2.41,2.41,0,0,1-.55-.82,5.22,5.22,0,0,1-.31-1.1,7.54,7.54,0,0,1-.09-1.12,20,20,0,0,1,.14-2.38,8.86,8.86,0,0,1,.45-2,3.68,3.68,0,0,1,.81-1.38,1.63,1.63,0,0,1,1.21-.51,2.13,2.13,0,0,1,.64.07,3,3,0,0,1,.41.17l.4.19A2.25,2.25,0,0,0,53,8a1.56,1.56,0,0,1,.62.6,2.27,2.27,0,0,1,.22.74,4.42,4.42,0,0,1,0,.82,4,4,0,0,0,0,.85l.09.06.22.1a.64.64,0,0,1,.22.14.34.34,0,0,1,.09.24v.09a4.27,4.27,0,0,0-.25,1c0,.28,0,.61,0,1,0,.19,0,.41,0,.64a4.06,4.06,0,0,0,.11.64,1.28,1.28,0,0,0,.22.5.42.42,0,0,0,.37.2.55.55,0,0,0,.45-.25,2.46,2.46,0,0,0,.34-.57c.09-.22.16-.44.23-.66a3.37,3.37,0,0,0,.11-.5c0-.17.1-.25.21-.25a.27.27,0,0,1,.2.11.71.71,0,0,1,.09.41V14A.62.62,0,0,1,56.59,14.22Zm-3.86-3.39c0-.15,0-.33,0-.54a2.68,2.68,0,0,0-.15-.59,1.21,1.21,0,0,0-.31-.46.85.85,0,0,0-.57-.18,1.1,1.1,0,0,0-.95.53,4.36,4.36,0,0,0-.57,1.25,7.42,7.42,0,0,0-.27,1.48c0,.51-.07.91-.07,1.21s0,.49,0,.8a8,8,0,0,0,.12.89,2.28,2.28,0,0,0,.24.71.46.46,0,0,0,.41.29,1.08,1.08,0,0,0,.93-.47A3.5,3.5,0,0,0,52,14.58a11.2,11.2,0,0,0,.24-1.5c.05-.54.09-1,.13-1.48a.63.63,0,0,1,.19-.45c.1-.06.15-.1.15-.13Z" transform="translate(-3.08 -3.4)" style="fill:#231f20"/><path d="M61.85,12.48a8.76,8.76,0,0,1-.15,1.66,4.93,4.93,0,0,1-.46,1.36,2.74,2.74,0,0,1-.79.92,1.82,1.82,0,0,1-1.1.34,1.89,1.89,0,0,1-1-.22.78.78,0,0,1-.4-.76.41.41,0,0,1,.16-.35.42.42,0,0,1,.28-.13.3.3,0,0,1,.24.09l.15.21a.83.83,0,0,0,.16.21.4.4,0,0,0,.31.1.61.61,0,0,0,.55-.34,2.77,2.77,0,0,0,.3-.83,7.2,7.2,0,0,0,.14-1.09c0-.39,0-.75,0-1.09v-1c0-.19,0-.42,0-.7a4.76,4.76,0,0,0-.11-.77,1.66,1.66,0,0,0-.26-.62.54.54,0,0,0-.47-.27c-.29,0-.54.22-.76.64a6.6,6.6,0,0,0-.53,1.61,17.6,17.6,0,0,0-.31,2.15c-.06.79-.09,1.54-.09,2.27v1.86c0,.27,0,.52,0,.73s0,.4.05.58a4.51,4.51,0,0,0,.09.53c0,.18.08.38.13.6a.26.26,0,0,0,.16.11.21.21,0,0,1,.14.2.31.31,0,0,1-.12.26.8.8,0,0,1-.29.15,1.59,1.59,0,0,1-.39.06H56.9a1.77,1.77,0,0,1-.5-.07.36.36,0,0,1-.25-.39V8.3a2.32,2.32,0,0,0-.08-.66,1.24,1.24,0,0,1,0-.16,1,1,0,0,1,0-.14s0-.06.11-.1l.26-.13.28-.1.16,0a.66.66,0,0,1,.55.23,1.37,1.37,0,0,1,.2.89V11a6,6,0,0,0,.24-.77,5.63,5.63,0,0,1,.33-1,2.86,2.86,0,0,1,.57-.82,1.28,1.28,0,0,1,.92-.34,1.43,1.43,0,0,1,1.09.45,3.57,3.57,0,0,1,.69,1.08A6,6,0,0,1,61.75,11a9,9,0,0,1,.1,1.28Z" transform="translate(-3.08 -3.4)" style="fill:#231f20"/><path d="M68.58,12.48a8,8,0,0,1-.16,1.66A4.63,4.63,0,0,1,68,15.5a2.83,2.83,0,0,1-.78.92,1.85,1.85,0,0,1-1.11.34,2,2,0,0,1-1-.22.79.79,0,0,1-.39-.76.43.43,0,0,1,.15-.35.46.46,0,0,1,.28-.13.27.27,0,0,1,.24.09l.15.21a1.2,1.2,0,0,0,.17.21.38.38,0,0,0,.3.1.6.6,0,0,0,.55-.34,2.52,2.52,0,0,0,.31-.83A7.23,7.23,0,0,0,67,13.65c0-.39,0-.75,0-1.09v-1c0-.19,0-.42,0-.7a4.76,4.76,0,0,0-.1-.77,1.84,1.84,0,0,0-.26-.62.55.55,0,0,0-.47-.27c-.3,0-.55.22-.76.64a6.58,6.58,0,0,0-.54,1.61,15.92,15.92,0,0,0-.3,2.15c-.06.79-.09,1.54-.09,2.27v1.86c0,.27,0,.52,0,.73s0,.4,0,.58,0,.36.08.53.08.38.14.6c0,0,.07.08.16.11a.2.2,0,0,1,.13.2.33.33,0,0,1-.11.26.84.84,0,0,1-.3.15,1.44,1.44,0,0,1-.38.06h-.67a1.68,1.68,0,0,1-.5-.07.35.35,0,0,1-.25-.39V8.3a2,2,0,0,0-.09-.66.75.75,0,0,0,0-.16c0-.05,0-.1,0-.14s0-.06.12-.1l.26-.13.28-.1.16,0a.67.67,0,0,1,.55.23,1.43,1.43,0,0,1,.2.89V11a6,6,0,0,0,.24-.77,4.29,4.29,0,0,1,.33-1,2.52,2.52,0,0,1,.57-.82,1.25,1.25,0,0,1,.91-.34,1.45,1.45,0,0,1,1.1.45,3.37,3.37,0,0,1,.68,1.08A5.57,5.57,0,0,1,68.48,11a10.68,10.68,0,0,1,.1,1.28Z" transform="translate(-3.08 -3.4)" style="fill:#231f20"/></svg>